# xmcd CD database file
#
# Track frame offsets:
#	150
#	51438
#	69878
#	82527
#	146373
#	170477
#	202813
#	228072
#
# Disc length: 3953 seconds
#
# Revision: 0
# Processed by: cddbd v1.5.2PL0 Copyright (c) Steve Scherf et al.
# Submitted via: CDex 1.70beta2
#
DISCID=560f6f08
DTITLE=Abysis Project - The Universe Will Never End
DYEAR=1999
DGENRE=New Age
TTITLE0=Air Minor
TTITLE1=Jamud
TTITLE2=Tornado
TTITLE3=Tarana
TTITLE4=The First Time
TTITLE5=Blooming Nature
TTITLE6=Para Montse
TTITLE7=Allah Yu Turgus Um Urgus
EXTD=YEAR: 1999
EXTT0=
EXTT1=
EXTT2=
EXTT3=
EXTT4=
EXTT5=
EXTT6=
EXTT7=
PLAYORDER=
